#!OML:ASF H:\Terrain\Walking\May29\JustinRory\Justin.ASF
:FULLY-SPECIFIED
:DEGREES
1135
root 6.31092 17.571 10.3923 -179.201 -18.4421 181.579
lowerback 6.80021 -5.26436 -3.89404
upperback -0.233214 -7.28019 2.80604
thorax -3.18622 -3.56607 5.72979
lowerneck -4.75318 -7.47108 -17.6064
upperneck 19.3621 -11.1698 8.25826
head 8.22685 -6.33287 4.5329
rclavicle 5.7076e-014 2.80286e-014
rhumerus 25.7498 5.08716 -63.3688
rradius 61.1137
rwrist -7.25883
rhand -32.1088 22.0624
rfingers 7.12502
rthumb -5.35382 -7.84994
lclavicle 5.7076e-014 2.80286e-014
lhumerus 25.3051 -41.4539 81.0958
lradius 68.9866
lwrist -0.472986
lhand -12.23 31.8569
lfingers 7.12502
lthumb 13.8353 61.3767
rfemur -22.3075 -1.49695 12.8426
rtibia 31.5273
rfoot -7.21663 -10.7163
rtoes 7.95038
lfemur 4.45552 2.28647 -16.2026
ltibia 25.0629
lfoot -22.2337 9.01723
ltoes -17.5903
1136
root 6.3187 17.5735 10.323 -179.102 -17.9669 181.738
lowerback 6.80738 -5.28316 -4.04765
upperback -0.462806 -7.31517 3.10174
thorax -3.3678 -3.57101 6.14261
lowerneck -4.91098 -7.43797 -17.5589
upperneck 19.4554 -11.0193 7.78762
head 8.23902 -6.29664 4.37508
rclavicle 5.34234e-015 2.38542e-015
rhumerus 28.9343 4.76062 -62.6649
rradius 56.506
rwrist -8.90574
rhand -31.8756 22.333
rfingers 7.12502
rthumb -5.12864 -7.58495
lclavicle 5.34234e-015 2.38542e-015
lhumerus 28.545 -40.2915 80.6315
lradius 67.0968
lwrist 2.33095
lhand -11.5225 33.4545
lfingers 7.12502
lthumb 14.5171 62.9266
rfemur -22.626 -1.17536 13.1772
rtibia 32.0593
rfoot -7.69946 -10.5916
rtoes 9.11235
lfemur 4.76877 2.39764 -15.98
ltibia 24.7282
lfoot -22.0344 9.28452
ltoes -17.6681
1137
root 6.32909 17.5647 10.2526 -178.885 -17.4114 181.535
lowerback 6.80089 -5.24407 -4.59827
upperback -0.668154 -7.30392 3.34337
thorax -3.48123 -3.54671 6.71378
lowerneck -5.28421 -7.377 -17.7061
upperneck 19.759 -10.8035 7.38775
head 8.369 -6.24244 4.2703
rclavicle -1.32192e-014 8.74653e-015
rhumerus 32.2536 4.35635 -62.1075
rradius 51.5291
rwrist -10.3734
rhand -30.0194 20.6048
rfingers 7.12502
rthumb -3.33615 -9.34887
lclavicle -1.32192e-014 8.74653e-015
lhumerus 30.4004 -38.2618 81.7559
lradius 64.4275
lwrist 3.46713
lhand -9.66105 34.4347
lfingers 7.12502
lthumb 16.31 63.7688
rfemur -22.9139 -0.941424 13.1138
rtibia 32.5085
rfoot -8.2225 -10.3216
rtoes 11.8306
lfemur 5.00634 2.59338 -16.1675
ltibia 24.5569
lfoot -21.4292 9.92929
ltoes -19.7772
1138
root 6.34314 17.57 10.1755 -178.662 -16.836 181.363
lowerback 6.75478 -5.20524 -5.20647
upperback -0.914184 -7.29743 3.60917
thorax -3.60541 -3.52066 7.34431
lowerneck -5.47255 -8.64154 -17.8689
upperneck 20.1426 -9.98497 6.83311
head 8.48962 -5.17166 4.27657
rclavicle 2.25372e-014 -2.3059e-014
rhumerus 35.4288 3.88419 -62.0089
rradius 46.6626
rwrist -12.1112
rhand -27.311 17.5583
rfingers 7.12502
rthumb -0.720508 -12.4203
lclavicle 2.25372e-014 -2.3059e-014
lhumerus 32.9958 -36.6428 82.1204
lradius 61.1887
lwrist 4.06335
lhand -7.37437 36.2824
lfingers 7.12502
lthumb 18.5107 65.4217
rfemur -23.0946 -0.807167 13.1261
rtibia 32.8043
rfoot -8.61273 -9.89381
rtoes 14.5285
lfemur 5.18476 2.63843 -16.326
ltibia 24.5466
lfoot -21.2547 10.2871
ltoes -20.0506
1139
root 6.36036 17.5747 10.0956 -178.612 -16.3679 181.701
lowerback 6.82247 -5.20023 -5.29645
upperback -1.24039 -7.30435 3.97895
thorax -3.92635 -3.50233 7.82121
lowerneck -5.25843 -8.44597 -18.2714
upperneck 20.0469 -9.6794 6.81151
head 8.40346 -5.05531 4.37651
rclavicle 2.87989e-014 -1.03368e-014
rhumerus 38.2457 3.43244 -62.1897
rradius 41.8836
rwrist -13.7616
rhand -24.4752 15.0897
rfingers 7.12502
rthumb 2.01845 -14.8805
lclavicle 2.87989e-014 -1.03368e-014
lhumerus 35.5911 -35.3763 82.3358
lradius 57.3451
lwrist 3.7096
lhand -5.35109 38.258
lfingers 7.12502
lthumb 20.4561 67.2004
rfemur -23.2374 -0.723277 13.7689
rtibia 32.9951
rfoot -8.60939 -9.70503
rtoes 12.1852
lfemur 5.33039 2.58959 -15.9035
ltibia 24.653
lfoot -21.2609 10.3448
ltoes -19.1074
1140
root 6.37741 17.5587 10.0182 -178.529 -15.8701 181.836
lowerback 6.90494 -5.14921 -5.48971
upperback -1.48114 -7.25929 4.24784
thorax -4.1765 -3.45913 8.2435
lowerneck -5.19085 -8.37721 -18.2632
upperneck 19.888 -9.49047 6.30463
head 8.2917 -5.00365 4.22368
rclavicle 8.93537e-014 -3.73715e-014
rhumerus 40.8599 3.46328 -61.7235
rradius 37.3936
rwrist -16.1062
rhand -22.3741 13.3572
rfingers 7.12502
rthumb 4.04756 -16.5841
lclavicle 8.93537e-014 -3.73715e-014
lhumerus 38.2605 -34.2883 82.4239
lradius 52.9293
lwrist 2.8945
lhand -4.51788 39.4426
lfingers 7.12502
lthumb 21.2566 68.297
rfemur -23.3658 -0.736382 14.2372
rtibia 33.0482
rfoot -8.27321 -9.60995
rtoes 6.65479
lfemur 5.38521 2.79091 -15.6223
ltibia 24.9397
lfoot -20.8653 10.3542
ltoes -19.6226
